<?xml version="1.0" standalone="no"?>
<!DOCTYPE svg PUBLIC "-//W3C//DTD SVG 20010904//EN"
 "http://www.w3.org/TR/2001/REC-SVG-20010904/DTD/svg10.dtd">
<svg version="1.0" xmlns="http://www.w3.org/2000/svg"
 width="300.000000pt" height="263.000000pt" viewBox="0 0 300.000000 263.000000"
 preserveAspectRatio="xMidYMid meet">
<metadata>
Created by potrace 1.10, written by Peter Selinger 2001-2011
</metadata>
<g transform="translate(0.000000,263.000000) scale(0.100000,-0.100000)"
fill="#000000" stroke="none">
<path d="M67 2595 c-32 -41 -24 -48 10 -8 20 22 29 43 21 43 -2 0 -16 -16 -31
-35z"/>
<path d="M163 2585 c4 -26 11 -53 16 -59 6 -7 12 -24 15 -40 16 -87 65 -216
92 -244 20 -19 17 -4 -10 65 -14 33 -40 118 -59 188 -19 74 -39 131 -47 133
-10 4 -12 -6 -7 -43z"/>
<path d="M284 2583 c7 -27 21 -64 31 -83 10 -19 21 -46 24 -59 4 -13 14 -25
23 -27 13 -1 15 5 11 35 -3 20 0 61 5 91 6 30 8 57 6 60 -3 2 -15 -8 -27 -24
-20 -24 -24 -26 -35 -13 -10 12 -9 18 5 33 17 17 17 17 -4 12 -16 -4 -23 -2
-23 8 0 8 -6 14 -14 14 -12 0 -12 -7 -2 -47z"/>
<path d="M459 2623 c-1 -5 -3 -21 -5 -38 -2 -16 -11 -73 -19 -125 -28 -168
-29 -183 -7 -203 19 -18 20 -17 20 54 1 40 6 115 12 168 6 53 12 108 14 124 1
15 -1 27 -6 27 -4 0 -9 -3 -9 -7z"/>
<path d="M569 2618 c-1 -7 -3 -24 -4 -38 -1 -14 -12 -65 -23 -113 -12 -49 -24
-102 -27 -119 -3 -17 -8 -35 -11 -40 -3 -5 -12 -68 -21 -141 -17 -151 -18
-157 -26 -177 -10 -28 -16 -90 -8 -94 7 -5 24 66 36 149 12 83 35 203 55 295
11 52 29 134 39 181 10 47 21 91 25 97 5 8 0 12 -13 12 -12 0 -22 -6 -22 -12z"/>
<path d="M667 2623 c-3 -5 -8 -44 -11 -88 -4 -44 -12 -116 -17 -160 -13 -92
-14 -101 -23 -215 -4 -47 -14 -116 -21 -155 -21 -101 -24 -134 -16 -140 8 -4
30 80 37 139 2 16 10 70 18 120 8 50 17 120 21 156 4 36 9 74 12 85 2 11 6 36
7 55 10 117 19 196 23 203 2 4 -3 7 -11 7 -8 0 -17 -3 -19 -7z"/>
<path d="M1329 2556 c-24 -76 -43 -96 -89 -96 -10 0 -21 -4 -25 -9 -3 -5 -19
-12 -36 -16 -28 -6 -79 -44 -79 -59 0 -3 18 -6 40 -6 38 0 40 -1 29 -21 -9
-17 -7 -24 10 -40 17 -16 21 -17 21 -4 0 8 -4 15 -10 15 -5 0 -10 9 -10 20 0
11 7 20 15 20 8 0 15 -4 15 -10 0 -6 9 -6 25 0 20 8 27 6 31 -5 9 -22 46 -20
42 3 -3 13 -14 17 -48 17 -48 1 -94 20 -85 35 3 6 -2 7 -12 4 -16 -5 -16 -4 1
10 10 8 22 13 27 11 4 -3 10 -1 14 5 3 5 17 10 31 10 14 0 22 -4 19 -10 -3 -5
0 -10 7 -10 9 0 9 -3 -2 -10 -10 -7 -18 -5 -25 4 -9 12 -14 12 -30 0 -16 -12
-17 -16 -6 -23 29 -19 100 21 81 45 -8 9 -3 15 19 25 16 7 28 16 25 20 -6 10
33 22 46 14 5 -3 10 -16 10 -28 0 -12 4 -17 8 -12 4 6 24 11 44 10 24 0 38 5
38 13 0 6 5 12 10 12 6 0 10 -3 10 -7 0 -5 28 -8 62 -9 35 0 74 -4 87 -9 21
-7 22 -6 13 12 -9 16 -21 19 -76 19 -36 -1 -66 2 -66 7 0 24 -3 22 55 26 13 1
28 17 43 46 27 54 27 55 2 55 -11 0 -20 -6 -20 -13 0 -8 -10 -22 -21 -33 l-22
-19 17 33 c9 17 13 32 8 32 -11 0 -43 -56 -35 -64 3 -3 -3 -6 -15 -6 -12 0
-21 -3 -21 -7 5 -33 -17 -50 -73 -57 -55 -7 -63 3 -51 73 8 54 8 61 -7 61 -12
0 -24 -22 -41 -74z"/>
<path d="M1907 2597 c-20 -18 -37 -38 -37 -45 0 -8 -6 -28 -14 -45 -22 -51
-35 -95 -29 -101 14 -14 24 -2 60 66 21 40 53 92 70 115 32 41 32 43 10 43
-12 -1 -39 -15 -60 -33z"/>
<path d="M2522 2613 c-11 -10 -53 -58 -93 -108 -40 -49 -126 -149 -191 -222
-71 -79 -118 -140 -118 -152 0 -36 8 -30 75 54 22 28 81 95 130 150 125 138
248 295 231 295 -7 0 -23 -8 -34 -17z"/>
<path d="M1803 2585 c-13 -19 -23 -38 -23 -43 0 -4 -12 -25 -26 -45 -25 -37
-27 -56 -5 -42 14 8 93 165 83 165 -4 0 -17 -16 -29 -35z"/>
<path d="M2199 2584 c-13 -14 -79 -73 -146 -132 -68 -58 -123 -111 -123 -116
0 -6 11 -12 25 -12 20 -2 38 12 78 60 29 34 87 95 130 135 42 40 77 77 77 82
0 16 -16 9 -41 -17z"/>
<path d="M957 2533 c-12 -19 -19 -113 -10 -113 6 0 13 26 16 57 6 57 4 73 -6
56z"/>
<path d="M2143 2433 c-31 -44 -64 -123 -61 -142 2 -9 23 23 47 72 43 89 50
122 14 70z"/>
<path d="M1301 2424 c-1 -23 24 -80 41 -90 7 -5 8 -2 3 6 -6 10 -4 12 8 7 11
-4 14 -2 10 9 -3 7 -9 14 -14 14 -5 0 -9 14 -9 31 0 19 -4 28 -11 24 -6 -4 -8
-13 -5 -21 3 -8 1 -14 -4 -14 -5 0 -11 12 -13 28 -3 19 -4 21 -6 6z"/>
<path d="M1388 2428 c-12 -28 1 -49 22 -38 9 5 20 6 24 3 3 -3 6 2 6 12 0 15
-3 16 -12 7 -18 -18 -26 -15 -30 11 -3 19 -4 20 -10 5z"/>
<path d="M1728 2413 c-10 -2 -18 -9 -18 -14 0 -15 43 -7 48 9 4 12 0 13 -30 5z"/>
<path d="M1821 2376 c-8 -9 -8 -21 -1 -40 13 -35 24 -33 17 4 -8 36 10 41 38
10 22 -24 55 -29 35 -5 -7 8 -16 13 -20 10 -4 -2 -15 4 -25 15 -21 24 -29 25
-44 6z"/>
<path d="M1059 2358 c-13 -11 -23 -25 -21 -30 1 -5 -2 -7 -8 -3 -13 8 -52 -14
-48 -27 5 -13 48 -19 48 -6 0 4 10 8 23 9 12 0 16 3 10 6 -7 2 -13 12 -13 20
0 13 2 13 17 2 15 -12 16 -12 10 3 -9 24 13 35 29 14 6 -9 15 -13 18 -8 3 6
-5 17 -18 25 -22 15 -26 15 -47 -5z"/>
<path d="M1850 2329 c0 -14 39 -45 53 -41 4 1 7 -3 7 -9 0 -15 -61 -3 -72 14
-5 8 -8 7 -8 -5 0 -10 7 -18 15 -18 8 0 15 -5 15 -11 0 -6 9 -8 20 -4 24 8 50
-10 50 -34 -1 -13 -3 -13 -15 3 -8 11 -18 17 -21 13 -4 -3 1 -13 10 -22 9 -9
16 -22 16 -29 0 -7 13 -27 30 -46 16 -18 27 -37 24 -41 -3 -5 -1 -9 5 -9 5 0
12 -8 14 -17 3 -10 5 -3 6 15 0 17 -3 32 -7 32 -12 0 -38 51 -45 86 -5 29 -4
31 16 28 13 -3 16 -1 7 2 -23 11 -40 31 -40 48 0 9 -8 16 -17 16 -9 0 -27 10
-40 22 -17 15 -23 17 -23 7z"/>
<path d="M1095 2292 c-11 -2 -24 -9 -30 -14 -7 -7 -3 -8 12 -4 12 4 31 2 43
-4 11 -6 20 -7 20 -2 0 16 -24 29 -45 24z"/>
<path d="M1965 2280 c10 -11 28 -19 41 -18 26 3 34 18 9 18 -8 0 -15 5 -15 10
0 6 -12 10 -27 10 -25 0 -26 -1 -8 -20z"/>
<path d="M951 2272 c-6 -11 -7 -23 -3 -27 4 -4 0 -5 -8 -4 -18 5 -59 -34 -63
-59 -2 -9 -13 -33 -25 -52 -12 -19 -22 -41 -22 -48 0 -7 -4 -21 -10 -32 -6
-11 -15 -29 -20 -40 -14 -28 -12 -34 5 -20 8 7 35 53 60 104 47 95 58 112 88
135 14 11 20 11 32 1 12 -10 15 -10 15 4 0 9 -4 16 -9 16 -5 0 -8 7 -7 16 2
25 -21 28 -33 6z"/>
<path d="M1460 2256 c49 -25 63 -24 38 1 -9 9 -32 17 -50 18 -33 3 -33 3 12
-19z"/>
<path d="M1402 2241 c-10 -6 -7 -12 12 -25 19 -12 26 -13 26 -4 0 7 9 3 18
-10 17 -21 20 -22 32 -8 11 14 11 16 -2 11 -9 -4 -18 1 -21 9 -4 9 -18 16 -32
16 -15 0 -24 4 -20 10 7 12 4 12 -13 1z"/>
<path d="M2021 2218 c-17 -13 -26 -15 -31 -7 -6 8 -9 8 -14 0 -9 -15 19 -25
42 -15 20 8 28 11 42 13 14 2 12 18 -3 24 -7 2 -23 -4 -36 -15z"/>
<path d="M2080 2191 c0 -5 -9 -11 -20 -13 -18 -3 -18 -4 4 -14 29 -14 49 -4
40 19 -7 18 -24 23 -24 8z"/>
<path d="M2004 2164 c9 -22 14 -43 15 -63 1 -11 4 -12 13 -3 14 14 -1 73 -21
80 -10 3 -12 0 -7 -14z"/>
<path d="M197 2103 c-4 -3 -7 -27 -7 -51 0 -25 3 -42 8 -38 5 6 12 96 6 96 0
0 -4 -3 -7 -7z"/>
<path d="M2146 2078 c6 -20 5 -21 -10 -9 -25 21 -31 6 -7 -18 12 -12 21 -16
21 -11 0 6 5 10 10 10 15 0 12 -30 -3 -36 -8 -3 -14 -12 -14 -20 0 -11 7 -8
25 9 l25 25 -22 36 c-26 41 -36 46 -25 14z"/>
<path d="M2036 2038 c-12 -39 -14 -65 -6 -78 7 -11 10 -5 10 22 0 20 5 40 10
43 6 3 10 10 10 16 0 14 -20 11 -24 -3z"/>
<path d="M2097 2029 c-10 -35 -8 -79 2 -79 14 0 20 25 11 41 -5 8 -5 16 2 20
7 4 7 12 1 24 -9 15 -11 15 -16 -6z"/>
<path d="M2191 1988 c-1 -15 -5 -29 -10 -32 -10 -6 8 -79 23 -93 5 -4 6 8 2
29 -5 25 -3 38 6 41 8 3 6 6 -4 6 -21 1 -24 17 -6 23 10 4 10 10 1 29 l-12 24
0 -27z"/>
<path d="M133 1973 c-10 -16 -20 -30 -23 -33 -11 -10 2 -121 13 -117 7 3 11
21 9 47 -1 25 3 52 12 65 12 19 19 65 9 65 -1 0 -10 -12 -20 -27z"/>
<path d="M270 1976 c-4 -13 -14 -43 -20 -67 -12 -44 -42 -91 -57 -89 -4 0 -10
-20 -14 -45 -3 -26 -11 -50 -18 -55 -13 -8 -7 -30 8 -30 7 0 35 73 36 95 0 5
9 19 20 30 46 49 56 68 62 125 6 62 -1 78 -17 36z"/>
<path d="M2989 1993 c-2 -4 -38 -26 -79 -47 -41 -22 -104 -58 -140 -81 -102
-64 -212 -126 -378 -210 -128 -65 -153 -81 -158 -104 -3 -14 -8 -34 -11 -44
-10 -38 27 -28 96 28 68 54 73 57 123 55 73 -3 75 -3 49 21 -19 18 -21 24 -9
34 17 16 389 245 455 280 29 15 55 37 59 47 6 19 0 37 -7 21z"/>
<path d="M793 1907 c-17 -22 -45 -121 -54 -192 -5 -38 -12 -101 -17 -140 -5
-38 -5 -71 0 -73 4 -2 9 -22 9 -45 1 -37 37 231 41 306 0 15 5 30 10 33 4 3 8
14 8 25 0 10 4 19 10 19 6 0 6 9 0 25 -7 20 -6 25 5 25 16 0 20 16 6 24 -5 3
-13 0 -18 -7z"/>
<path d="M2081 1795 c1 -48 1 -49 9 -15 5 19 4 41 0 50 -6 10 -9 -1 -9 -35z"/>
<path d="M2187 1796 c-5 -21 -6 -41 -3 -44 12 -11 17 7 14 44 l-3 39 -8 -39z"/>
<path d="M1988 1738 c7 -7 12 -22 12 -35 0 -13 5 -23 10 -23 13 0 13 12 0 44
-5 14 -15 26 -22 26 -9 0 -9 -3 0 -12z"/>
<path d="M2150 1714 c0 -10 -6 -14 -15 -10 -8 3 -15 2 -16 -2 -15 -102 -18
-152 -8 -158 5 -3 7 11 5 33 -3 21 0 40 6 44 6 4 12 18 13 32 2 13 11 36 20
51 10 15 13 26 6 26 -6 0 -11 -7 -11 -16z"/>
<path d="M65 1683 c8 -16 25 -41 39 -57 l24 -28 -6 28 c-5 28 -48 84 -64 84
-5 0 -2 -12 7 -27z"/>
<path d="M887 1671 c-20 -10 -34 -20 -31 -23 3 -4 -4 -9 -15 -13 -29 -9 -67
-73 -52 -88 9 -9 13 -6 17 10 4 12 15 25 25 28 11 4 17 10 14 15 -3 4 5 10 16
13 12 3 18 10 14 16 -11 18 14 12 34 -8 11 -11 22 -17 25 -13 3 3 6 -3 6 -13
0 -10 2 -16 6 -13 3 3 26 -1 51 -8 51 -15 79 -5 54 19 -11 10 -13 10 -7 0 9
-16 1 -16 -26 -2 -20 11 -20 11 3 23 27 14 49 10 49 -9 0 -13 37 -31 54 -27 4
2 15 -3 24 -10 13 -11 15 -9 9 17 l-6 30 14 -30 c8 -16 15 -28 15 -25 11 46 7
59 -18 66 -32 9 -33 9 -52 17 -33 13 -99 14 -104 1 -3 -7 0 -15 7 -18 7 -2 5
-5 -5 -5 -9 -1 -18 -4 -21 -8 -2 -5 -2 -2 -1 5 2 6 -1 12 -6 12 -6 0 -10 -5
-10 -11 0 -8 -4 -8 -12 -1 -12 10 -18 12 -35 12 -5 0 -3 4 4 8 15 9 21 44 8
48 -5 1 -27 -6 -48 -15z"/>
<path d="M0 1657 c0 -15 11 -45 25 -65 14 -20 25 -41 25 -46 0 -14 74 -136 82
-136 10 0 -8 46 -42 105 -16 28 -42 77 -59 110 -26 51 -30 56 -31 32z"/>
<path d="M957 1663 c-14 -13 -6 -24 15 -21 27 4 36 28 11 28 -11 0 -23 -3 -26
-7z"/>
<path d="M1497 1641 c-15 -29 -8 -59 11 -47 6 3 13 2 17 -4 4 -6 12 -7 18 -3
18 11 37 12 37 3 0 -5 -7 -10 -15 -12 -9 -2 -11 -8 -7 -16 9 -13 51 -4 102 22
14 8 31 11 37 9 7 -3 16 2 19 11 3 9 10 16 16 16 5 0 6 -4 3 -10 -3 -6 1 -7 9
-4 10 4 16 1 16 -9 0 -13 4 -13 25 -4 21 10 23 14 10 23 -8 6 -12 14 -8 17 3
4 -3 7 -15 7 -11 0 -27 7 -36 15 -17 18 -46 20 -46 4 0 -6 6 -9 14 -6 8 3 20
-1 26 -9 15 -18 8 -18 -35 0 -18 8 -35 12 -38 10 -10 -10 -49 -13 -70 -5 -63
23 -75 22 -90 -8z"/>
<path d="M1456 1649 c-14 -45 -16 -70 -5 -64 6 4 15 2 19 -6 5 -7 6 7 3 32 -6
49 -10 58 -17 38z"/>
<path d="M1408 1643 c-19 -5 -25 -23 -8 -23 5 0 7 -7 4 -15 -4 -8 -11 -12 -17
-8 -6 3 -7 1 -3 -6 12 -18 39 3 42 33 1 14 2 25 1 25 -1 -1 -10 -3 -19 -6z"/>
<path d="M2174 1627 c-17 -20 -23 -67 -12 -98 6 -18 6 -34 0 -46 -9 -15 -12
-13 -20 17 l-10 35 1 -36 c0 -20 -3 -41 -7 -47 -4 -7 -1 -12 10 -12 9 0 23 -8
30 -17 12 -16 14 -15 15 12 2 34 1 62 -2 120 -1 22 1 50 5 63 8 25 6 27 -10 9z"/>
<path d="M2750 1618 c-134 -12 -212 -26 -224 -38 -8 -9 13 -11 89 -6 116 8
277 24 320 33 l30 6 -24 9 c-26 9 -47 9 -191 -4z"/>
<path d="M163 1589 c-14 -14 2 -66 28 -91 10 -10 15 -26 12 -36 -2 -11 0 -23
6 -26 16 -10 14 33 -6 95 -20 64 -25 73 -40 58z"/>
<path d="M679 1493 c0 -5 -2 -16 -4 -25 -2 -10 1 -20 6 -24 5 -3 9 -14 9 -25
0 -10 4 -19 9 -19 4 0 7 10 6 23 -1 12 -3 34 -4 50 -1 23 -20 40 -22 20z"/>
<path d="M922 1475 c-47 -11 -93 -36 -66 -35 14 1 114 36 121 44 3 3 4 6 2 5
-2 0 -28 -6 -57 -14z"/>
<path d="M1015 1481 c11 -5 32 -10 46 -10 31 -1 55 -19 64 -48 5 -18 2 -23
-13 -23 -15 0 -18 5 -15 24 4 20 0 25 -29 31 -18 4 -46 7 -62 7 -31 -1 -142
-38 -165 -56 -12 -9 -13 -8 -6 4 5 9 0 8 -13 -4 -12 -11 -22 -20 -22 -20 0 -1
28 -1 63 -2 34 0 85 -1 112 -3 28 -1 76 -1 108 2 31 2 57 1 57 -3 0 -4 10 -6
23 -5 28 2 29 26 1 40 -11 5 -19 15 -17 20 5 17 -48 42 -102 49 -34 4 -43 3
-30 -3z m-32 -63 c8 -29 6 -30 -33 -17 l-33 12 24 13 c32 18 36 17 42 -8z m54
7 c5 -16 -14 -38 -26 -31 -18 12 -13 48 6 44 9 -2 18 -7 20 -13z"/>
<path d="M2500 1470 c-25 -10 -83 -26 -130 -35 -112 -23 -112 -23 -108 -40 4
-21 1 -21 88 4 134 37 240 74 240 82 0 14 -41 9 -90 -11z"/>
<path d="M1433 1463 c-13 -8 -23 -25 -23 -37 0 -24 25 -64 34 -55 4 4 16 110
12 108 0 0 -11 -7 -23 -16z"/>
<path d="M1501 1445 c-40 -36 -42 -41 -36 -79 4 -23 15 -49 24 -60 22 -26 80
-61 114 -70 41 -10 33 11 -10 25 -20 6 -47 21 -58 33 -29 28 -58 76 -51 83 3
4 30 0 60 -7 38 -9 80 -11 133 -6 43 4 92 8 110 9 17 1 35 6 40 10 4 5 3 7 -2
6 -6 -2 -32 7 -60 20 -102 46 -157 50 -260 16 -16 -6 -15 -3 5 14 50 41 182
36 276 -10 24 -13 47 -20 50 -16 4 4 -19 18 -52 33 -44 19 -82 27 -150 31
l-91 6 -42 -38z m76 -64 c-4 -1 -22 3 -39 10 l-30 12 33 18 34 17 5 -26 c3
-15 2 -29 -3 -31z m153 19 c11 -7 9 -11 -14 -20 -33 -12 -39 -9 -30 14 7 18
22 20 44 6z"/>
<path d="M2218 1396 c-23 -17 -23 -44 2 -81 l19 -29 -2 62 c0 34 -1 62 -2 62
0 0 -8 -7 -17 -14z"/>
<path d="M2093 1382 c-12 -8 -11 -52 2 -92 l9 -25 6 25 c4 14 3 36 -2 49 -10
28 -1 42 12 21 8 -12 10 -10 10 8 0 22 -15 28 -37 14z"/>
<path d="M699 1323 c-1 -5 -1 -11 0 -15 0 -4 -7 -24 -16 -45 -14 -34 -17 -36
-24 -18 -7 17 -8 18 -8 2 -1 -10 6 -20 14 -23 8 -4 12 -10 9 -16 -3 -5 -8 -46
-10 -91 -2 -45 -6 -89 -9 -98 -3 -10 -1 -20 5 -24 6 -4 8 -15 5 -26 -5 -14 0
-20 19 -25 17 -4 26 -13 26 -25 0 -10 5 -19 10 -19 13 0 9 30 -5 46 -5 6 -16
9 -24 6 -12 -4 -13 6 -7 59 3 35 9 109 12 164 3 55 10 112 14 128 6 16 5 27
-1 27 -5 0 -10 -3 -10 -7z"/>
<path d="M2130 1271 c0 -10 4 -31 10 -47 5 -16 12 -45 14 -64 2 -24 9 -36 21
-38 10 -2 15 0 11 6 -3 6 -1 12 4 14 6 2 14 28 17 59 4 46 3 57 -11 62 -9 4
-16 1 -16 -5 0 -6 -8 -1 -19 10 -23 27 -31 28 -31 3z"/>
<path d="M956 1194 c-4 -9 -5 -19 -3 -21 8 -7 38 10 34 20 -6 18 -24 19 -31 1z"/>
<path d="M2260 1183 l0 -29 78 -2 c81 -2 332 -24 517 -46 69 -8 117 -9 128 -4
10 6 17 12 14 14 -2 3 -105 16 -228 29 -305 33 -477 55 -494 61 -11 5 -15 -1
-15 -23z"/>
<path d="M1105 1144 c-8 -13 -11 -24 -6 -24 5 0 13 5 17 11 3 6 19 9 35 5 22
-4 29 -2 29 9 0 8 -3 16 -7 16 -41 7 -54 4 -68 -17z"/>
<path d="M1505 1133 c32 -48 33 -96 3 -117 -30 -21 -13 -20 23 1 16 10 29 22
29 27 0 6 8 -1 17 -14 10 -14 17 -28 16 -32 -2 -4 19 -24 45 -45 64 -51 84
-72 104 -110 25 -45 23 -83 -2 -90 -24 -6 -22 -25 3 -29 22 -3 41 64 28 99 -5
14 -7 28 -4 31 3 3 -12 25 -33 48 -21 24 -39 41 -40 38 -2 -6 -52 38 -75 67
-14 17 -31 49 -33 63 -4 21 -50 79 -71 88 -38 17 -38 16 -10 -25z"/>
<path d="M1033 1126 c-14 -8 -19 -17 -13 -25 9 -16 26 -8 40 20 12 21 5 23
-27 5z"/>
<path d="M2072 1122 c5 -16 2 -22 -10 -22 -12 0 -13 -3 -5 -11 6 -6 16 -8 22
-5 15 9 14 43 -1 52 -8 5 -9 0 -6 -14z"/>
<path d="M268 1112 c-3 -9 -1 -26 3 -37 9 -23 10 -21 14 23 2 34 -9 44 -17 14z"/>
<path d="M2141 1113 c-1 -7 -8 -10 -16 -7 -8 4 -15 1 -15 -5 0 -6 5 -11 10
-11 6 0 10 -13 10 -30 0 -17 5 -30 13 -30 8 0 7 -4 -3 -10 -12 -7 -12 -10 -1
-10 8 0 11 -6 7 -17 -4 -13 0 -11 14 6 24 28 25 41 4 41 -10 0 -14 6 -11 14 3
8 2 27 -3 43 -4 15 -9 23 -9 16z"/>
<path d="M366 1073 c-14 -52 -17 -83 -7 -83 6 0 11 7 11 16 0 11 5 14 16 10
13 -5 14 -2 9 11 -5 10 -8 28 -8 41 1 26 -14 30 -21 5z"/>
<path d="M1010 1072 c0 -5 -17 -18 -37 -30 -21 -11 -57 -40 -81 -65 -34 -35
-44 -53 -51 -96 -4 -28 -4 -54 0 -57 5 -3 9 -15 9 -27 0 -12 5 -29 11 -37 8
-11 9 -5 4 23 -5 30 -3 37 7 32 7 -3 6 -1 -2 7 -11 10 -14 25 -10 60 7 56 33
88 108 130 34 20 52 36 52 49 0 10 -2 19 -5 19 -3 0 -5 -4 -5 -8z"/>
<path d="M1123 1045 c-16 -13 -15 -14 15 -15 18 0 42 -5 52 -10 16 -8 18 -7
14 4 -9 24 -59 37 -81 21z"/>
<path d="M1404 1025 c-20 -15 -15 -18 29 -15 15 1 27 -3 27 -9 0 -6 5 -11 10
-11 6 0 10 11 10 25 0 21 -5 25 -28 25 -16 0 -37 -7 -48 -15z"/>
<path d="M1170 993 c-8 -3 -18 -10 -21 -16 -9 -13 -72 -20 -64 -7 3 6 1 10 -4
10 -6 0 -11 -7 -11 -15 0 -8 -3 -15 -7 -15 -5 0 -17 -13 -28 -28 -15 -21 -15
-24 -2 -13 9 7 17 11 17 8 0 -3 11 5 24 18 16 16 31 22 41 19 13 -6 14 -8 3
-15 -10 -7 -10 -9 0 -9 7 0 15 6 18 14 3 8 22 14 47 15 64 3 67 4 60 14 -3 5
-21 6 -41 2 -32 -6 -34 -5 -23 9 14 17 14 17 -9 9z"/>
<path d="M1332 956 c-11 -11 -23 -31 -27 -43 -3 -13 -10 -23 -15 -23 -5 0 -7
-8 -4 -17 5 -15 4 -16 -5 -3 -5 8 -7 26 -4 40 6 22 5 24 -10 11 -10 -7 -17
-21 -17 -30 0 -12 -2 -13 -9 -3 -6 11 -11 10 -25 -3 -23 -23 -20 -33 9 -27 14
2 25 0 25 -4 0 -11 55 -12 66 -1 4 4 18 7 31 7 l24 0 -20 29 c-11 15 -18 31
-14 35 12 11 33 6 33 -8 0 -8 5 -18 12 -22 8 -5 9 -2 5 9 -4 10 -2 17 4 17 6
0 9 9 6 20 -3 11 -1 23 4 26 5 3 9 -9 9 -25 0 -17 4 -31 8 -31 4 0 8 15 8 34
0 32 -2 33 -38 33 -25 0 -43 -7 -56 -21z"/>
<path d="M890 933 c-16 -20 -18 -28 -8 -35 20 -12 29 -9 26 10 -2 11 4 17 17
17 11 0 18 4 17 9 -2 5 2 13 10 17 9 6 5 9 -14 9 -17 0 -34 -10 -48 -27z"/>
<path d="M1447 914 c-4 -4 -7 -16 -7 -27 0 -11 -3 -17 -7 -14 -3 4 -12 2 -20
-4 -10 -9 -13 -8 -13 1 0 17 -13 4 -16 -15 -1 -8 6 -13 16 -12 10 1 17 4 14 8
-2 4 1 11 7 15 8 5 10 -1 7 -19 -3 -16 0 -28 8 -31 8 -3 14 -1 14 5 0 6 4 7
10 4 5 -3 18 -1 27 4 10 6 13 11 6 11 -7 0 -10 7 -6 16 4 10 0 22 -9 28 -8 6
-17 17 -19 24 -2 7 -8 10 -12 6z"/>
<path d="M2008 902 c-8 -12 -18 -19 -22 -15 -4 4 -4 0 -1 -9 6 -16 8 -16 27 2
11 10 18 24 16 31 -3 8 -9 5 -20 -9z"/>
<path d="M2095 911 c-3 -5 -7 -24 -9 -41 -3 -24 0 -30 12 -28 21 4 28 28 7 28
-13 0 -13 2 -3 14 7 7 20 11 28 8 13 -5 13 -3 1 11 -15 19 -27 22 -36 8z"/>
<path d="M1540 905 c0 -4 9 -14 21 -24 13 -10 22 -30 22 -48 1 -17 5 -29 9
-27 12 8 9 47 -5 64 -17 21 -47 44 -47 35z"/>
<path d="M1634 896 c5 -14 2 -17 -9 -12 -11 4 -14 2 -8 -7 11 -18 12 -37 2
-37 -4 0 -6 -7 -3 -15 6 -14 8 -13 20 2 12 16 12 14 3 -15 -8 -22 -16 -31 -25
-28 -8 3 -14 0 -14 -7 0 -8 -3 -7 -9 2 -8 12 -12 12 -25 2 -11 -9 -47 -13
-116 -12 -55 1 -100 -2 -100 -6 0 -5 46 -9 102 -9 162 -3 168 -4 168 -29 0
-13 7 -28 15 -35 9 -7 15 -20 14 -29 -3 -32 2 -35 16 -11 8 14 14 19 15 13 0
-7 5 -13 11 -13 6 0 9 9 6 19 -3 13 1 21 14 24 11 3 17 1 14 -3 -3 -5 -1 -11
5 -15 19 -12 10 25 -11 46 -11 11 -19 29 -16 38 2 10 -2 26 -10 37 -14 17 -14
16 -8 -16 3 -19 9 -43 11 -52 3 -10 1 -18 -5 -18 -6 0 -11 5 -11 11 0 5 -4 7
-10 4 -14 -9 -13 18 2 33 6 6 8 15 4 19 -4 4 -11 1 -17 -7 -6 -10 -7 5 -3 43
5 41 3 57 -5 57 -7 0 -10 4 -7 8 2 4 0 14 -6 22 -8 12 -9 11 -4 -4z"/>
<path d="M1164 875 c-3 -14 -10 -25 -15 -25 -5 0 -9 -5 -9 -10 0 -6 11 -3 24
7 13 10 24 26 23 36 -2 25 -16 21 -23 -8z"/>
<path d="M724 864 c1 -8 7 -19 13 -22 5 -4 12 -13 14 -20 2 -7 9 3 15 22 10
32 9 34 -8 25 -12 -6 -18 -6 -18 1 0 5 -4 10 -9 10 -5 0 -8 -7 -7 -16z"/>
<path d="M895 855 c2 -16 4 -32 5 -35 1 -3 2 -9 1 -13 -1 -5 4 -5 10 -1 8 4 9
-2 5 -23 -6 -25 -3 -33 19 -47 25 -17 27 -17 40 1 10 13 10 20 2 25 -7 4 -13
3 -15 -2 -2 -6 -8 -10 -14 -10 -6 0 -8 13 -4 33 3 19 3 27 -3 19 -8 -13 -22 9
-44 68 -4 8 -4 2 -2 -15z"/>
<path d="M1114 851 c3 -5 -3 -11 -14 -14 -11 -3 -20 -9 -20 -14 0 -13 33 -12
42 1 11 16 10 36 -3 36 -5 0 -8 -4 -5 -9z"/>
<path d="M1680 841 c0 -5 7 -11 15 -15 8 -3 15 -12 15 -21 0 -8 5 -15 10 -15
14 0 12 12 -6 38 -15 22 -34 29 -34 13z"/>
<path d="M1776 835 c4 -11 11 -25 16 -31 11 -14 14 -77 4 -92 -4 -7 -2 -10 6
-7 9 4 13 26 14 67 0 34 -2 56 -4 49 -3 -10 -10 -7 -23 10 -16 20 -18 21 -13
4z"/>
<path d="M976 822 c5 -4 24 -21 42 -37 25 -22 31 -25 26 -11 -6 16 -4 18 9 13
32 -12 17 9 -18 26 -36 17 -77 24 -59 9z"/>
<path d="M1369 813 c-9 -10 -5 -13 19 -13 22 0 30 4 26 13 -3 8 -11 14 -20 14
-8 0 -19 -6 -25 -14z"/>
<path d="M749 792 c8 -6 12 -16 9 -23 -3 -8 3 -23 13 -33 11 -11 19 -14 19 -8
0 6 8 9 18 6 14 -5 14 -4 2 4 -8 6 -18 8 -23 5 -6 -4 -8 5 -5 21 3 14 2 26 -3
26 -4 0 -16 3 -26 6 -14 5 -15 4 -4 -4z"/>
<path d="M1080 787 c0 -7 21 -13 52 -15 29 -2 55 -6 58 -10 9 -12 150 -14 150
-2 0 5 -18 10 -40 10 -21 0 -61 4 -87 9 -88 17 -133 20 -133 8z"/>
<path d="M2140 780 c0 -5 5 -10 10 -10 6 0 10 -7 10 -15 0 -27 44 -43 138 -49
59 -4 120 -15 165 -30 40 -14 137 -41 217 -60 80 -20 158 -40 173 -45 21 -7
27 -7 24 2 -4 14 -51 31 -172 62 -49 12 -135 37 -190 55 -82 26 -355 100 -371
100 -2 0 -4 -4 -4 -10z"/>
<path d="M675 755 c-23 -19 -26 -25 -12 -25 9 0 17 -7 17 -15 0 -9 -7 -13 -17
-9 -10 2 -8 -1 4 -7 14 -7 25 -25 29 -46 7 -38 28 -58 22 -22 -2 13 4 30 12
37 13 10 13 11 -2 6 -13 -4 -15 -1 -11 17 4 15 3 20 -5 15 -7 -4 -12 -1 -12 8
0 8 -3 22 -7 32 -4 12 -3 15 5 10 7 -4 12 -1 12 8 0 20 1 20 -35 -9z"/>
<path d="M1875 760 c-4 -6 -10 -8 -15 -5 -13 8 -22 -32 -15 -65 4 -17 11 -30
16 -30 6 0 8 -4 4 -10 -3 -5 -13 -6 -21 -3 -9 3 -19 1 -23 -6 -4 -7 -17 -13
-29 -14 -11 0 -18 -5 -15 -10 2 -4 14 -7 26 -5 16 2 22 -2 21 -14 -2 -18 16
-20 28 -3 12 16 9 25 -7 25 -8 0 -15 5 -15 11 0 6 6 9 14 6 8 -3 20 1 27 9 7
8 18 13 25 10 8 -3 11 0 8 9 -3 8 -13 11 -21 8 -12 -5 -14 -3 -8 7 5 8 4 11
-3 6 -6 -3 -13 -2 -16 3 -9 14 13 24 27 12 17 -14 33 -2 41 33 6 25 5 28 -7
18 -8 -7 -17 -8 -22 -4 -4 4 -3 -2 3 -13 9 -18 7 -20 -18 -20 l-28 0 20 28
c11 15 17 27 14 27 -3 0 -8 -5 -11 -10z"/>
<path d="M920 719 c0 -5 6 -7 13 -4 6 4 4 0 -5 -7 -11 -9 -18 -32 -19 -64 -1
-27 -7 -53 -13 -57 -6 -5 0 -5 13 -2 20 6 23 4 18 -10 -4 -9 -7 -19 -7 -21 0
-10 -29 -3 -33 9 -3 7 -6 5 -6 -5 -2 -30 38 -22 50 10 6 15 15 35 21 45 13 25
4 32 -15 12 -26 -25 -29 -17 -6 14 12 17 18 34 14 42 -5 7 -4 10 3 5 19 -12
25 15 6 29 -23 17 -34 19 -34 4z"/>
<path d="M2074 702 c7 -11 -58 -74 -67 -66 -4 4 -7 1 -7 -7 0 -8 -3 -24 -6
-36 -5 -19 -2 -23 16 -23 19 0 21 4 16 26 -5 20 -3 27 12 31 11 2 29 22 41 44
19 34 20 39 6 39 -9 0 -14 -4 -11 -8z"/>
<path d="M589 689 c-2 -26 3 -54 11 -63 4 -4 6 9 4 29 -3 38 -13 60 -15 34z"/>
<path d="M1230 669 c0 -18 -44 -69 -59 -70 -11 0 -12 -2 -3 -6 6 -2 12 -16 12
-29 0 -22 2 -23 20 -12 17 10 18 14 5 16 -16 4 -21 32 -5 32 6 0 10 8 10 18 0
14 2 15 10 2 8 -13 10 -12 10 3 0 21 18 23 26 2 4 -8 10 -12 15 -9 5 3 9 -2 9
-10 0 -20 -17 -30 -23 -14 -4 9 -6 9 -6 -1 -1 -8 -11 -26 -23 -40 -13 -14 -17
-21 -9 -14 20 17 41 5 41 -24 0 -13 -4 -21 -10 -18 -6 3 -7 -1 -4 -10 6 -13
10 -11 25 12 23 34 24 53 5 53 -8 0 -18 5 -22 12 -4 6 -3 8 3 5 6 -4 20 12 32
37 11 25 26 48 32 52 7 4 9 3 6 -3 -4 -6 3 -10 17 -10 23 0 23 0 4 19 -17 17
-21 17 -39 4 -20 -14 -54 -12 -45 3 3 4 -4 8 -15 8 -10 1 -19 -3 -19 -8z"/>
<path d="M7 645 c-5 -29 -1 -154 11 -330 6 -97 9 -107 20 -87 7 12 13 35 13
50 1 76 -27 381 -35 390 -2 1 -6 -9 -9 -23z"/>
<path d="M1401 652 c-11 -20 -10 -22 11 -18 13 3 29 5 36 5 7 1 10 6 7 12 -4
6 -13 8 -20 5 -8 -3 -15 0 -18 7 -2 7 -9 2 -16 -11z"/>
<path d="M96 570 c3 -47 9 -101 14 -120 4 -19 11 -66 15 -105 3 -38 9 -79 12
-89 5 -18 6 -18 15 -3 5 10 7 21 4 25 -9 16 -18 152 -10 152 5 0 15 -10 23
-21 10 -17 15 -19 21 -9 9 15 50 21 50 8 0 -5 4 -7 9 -4 4 3 6 17 3 32 -2 14
-7 22 -11 17 -3 -5 -21 -10 -38 -11 -43 -4 -85 38 -82 83 1 16 -1 37 -4 45 -3
8 -11 31 -16 50 -8 28 -9 17 -5 -50z"/>
<path d="M1118 627 c-7 -7 -22 -18 -33 -25 -19 -11 -19 -11 3 -12 12 0 22 5
22 10 0 6 6 10 13 10 8 0 14 7 14 15 0 18 -2 19 -19 2z"/>
<path d="M684 622 c6 -11 -12 -17 -36 -13 -5 0 -8 -4 -8 -10 0 -6 7 -9 15 -6
8 4 17 2 20 -3 4 -6 15 -10 25 -10 10 0 24 -8 29 -17 10 -17 10 -17 11 0 0 11
-9 21 -20 24 -11 3 -20 11 -20 19 0 7 -5 16 -12 20 -7 4 -8 3 -4 -4z"/>
<path d="M1673 618 c-5 -7 -14 -20 -18 -28 -8 -13 -7 -13 8 -1 15 12 17 12 12
-1 -4 -10 1 -17 14 -21 12 -3 21 -1 21 4 0 5 -5 9 -11 9 -5 0 -7 4 -4 10 3 5
2 17 -3 26 -7 12 -10 13 -19 2z"/>
<path d="M145 583 c2 -28 9 -40 36 -56 30 -19 32 -20 26 -3 -4 10 -7 24 -7 31
0 8 -9 17 -20 20 -11 3 -20 13 -20 20 0 8 -4 16 -8 19 -5 3 -8 -11 -7 -31z"/>
<path d="M1400 602 c0 -10 -5 -23 -11 -29 -8 -8 -8 -13 0 -18 6 -3 13 0 15 7
11 36 13 58 5 58 -5 0 -9 -8 -9 -18z"/>
<path d="M355 591 c3 -5 1 -12 -5 -16 -5 -3 -10 -12 -10 -18 0 -7 4 -6 10 3 9
13 10 13 11 0 0 -10 3 -8 9 5 13 29 12 35 -6 35 -8 0 -13 -4 -9 -9z"/>
<path d="M651 566 c-7 -8 -13 -35 -14 -60 -1 -29 -7 -46 -14 -46 -7 0 -13 -6
-13 -14 0 -8 -4 -16 -9 -18 -4 -1 -11 -21 -15 -43 -8 -41 9 -41 18 0 9 43 19
64 31 69 8 3 19 24 25 48 6 24 13 51 16 61 6 20 -9 23 -25 3z"/>
<path d="M1926 565 c-3 -9 0 -12 9 -9 9 4 13 -1 12 -15 -1 -15 -8 -21 -24 -21
-16 0 -21 -4 -16 -15 3 -9 -3 -23 -13 -31 -11 -9 -14 -13 -8 -10 7 3 14 0 17
-8 8 -19 -3 -28 -19 -15 -10 8 -12 6 -9 -11 3 -18 2 -20 -10 -10 -12 10 -15
10 -15 -1 0 -8 -5 -6 -13 6 -13 17 -14 17 -20 -4 -5 -21 -3 -22 36 -17 68 7
95 24 67 41 -16 10 -12 25 5 19 9 -4 15 -1 15 7 0 7 6 20 14 28 10 11 12 26 8
46 -8 32 -27 43 -36 20z"/>
<path d="M977 549 c-11 -15 -16 -17 -20 -7 -4 11 -6 11 -6 0 -1 -8 -11 -22
-23 -32 -13 -10 -20 -22 -16 -26 5 -4 17 3 28 16 15 17 26 21 47 16 23 -5 25
-4 10 4 -14 9 -15 14 -4 24 7 7 19 15 27 19 10 4 8 6 -7 6 -12 1 -28 -8 -36
-20z"/>
<path d="M748 542 c-6 -23 -1 -32 19 -32 17 0 17 11 0 35 -13 17 -14 17 -19
-3z"/>
<path d="M1815 540 c3 -11 2 -20 -3 -20 -5 0 -9 -16 -10 -35 -1 -27 3 -35 16
-35 10 0 13 3 7 8 -6 4 -10 13 -9 20 1 6 2 17 3 22 0 6 7 9 14 8 6 -2 11 3 9
10 -1 7 5 15 13 18 8 3 12 10 9 16 -3 5 -12 4 -22 -4 -12 -10 -14 -10 -8 0 4
7 1 12 -9 12 -12 0 -15 -6 -10 -20z"/>
<path d="M2022 540 c-6 -11 -12 -28 -12 -37 0 -15 -2 -15 -9 -4 -7 11 -9 8 -9
-10 -2 -77 -66 -329 -95 -366 -7 -10 -4 -13 12 -13 23 0 51 51 66 120 4 19 12
46 18 60 13 32 14 35 16 63 l2 22 10 -23 c5 -13 8 -42 7 -65 -1 -24 3 -42 10
-45 17 -5 15 -22 -3 -22 -18 0 -20 -17 -3 -22 9 -3 8 -20 -2 -68 -7 -34 -13
-69 -13 -76 0 -8 -4 -14 -9 -14 -4 0 -3 -9 4 -20 16 -25 27 -26 26 -3 0 10 8
43 17 73 22 72 32 284 15 304 -6 9 -14 44 -17 78 -6 78 -14 95 -31 68z"/>
<path d="M1049 525 c-8 -16 -21 -36 -29 -43 -13 -12 -13 -13 0 -7 8 4 3 -3
-12 -15 -29 -22 -37 -50 -16 -50 6 0 9 3 5 6 -3 3 7 17 24 31 16 14 29 32 29
42 0 9 5 22 11 28 6 6 9 17 6 25 -3 8 -10 2 -18 -17z"/>
<path d="M1597 497 c-3 -9 -12 -17 -19 -17 -7 0 -14 -13 -15 -30 -1 -18 2 -28
7 -25 6 4 10 15 10 26 0 10 5 19 11 19 6 0 8 -7 5 -16 -5 -14 -4 -15 9 -4 8 7
12 16 9 21 -3 5 -1 9 4 9 6 0 13 7 16 16 5 14 4 15 -8 5 -11 -9 -15 -9 -18 1
-3 8 -7 6 -11 -5z"/>
<path d="M1194 478 c3 -10 1 -20 -4 -23 -6 -4 -10 -14 -10 -23 0 -9 -9 -28
-20 -42 -16 -21 -21 -23 -32 -11 -10 10 -10 12 0 7 15 -9 16 10 2 19 -8 5 -7
12 2 23 11 13 11 14 -2 10 -10 -3 -15 -19 -16 -51 -1 -59 17 -77 40 -41 10 15
23 23 32 20 8 -3 14 -1 14 4 0 5 -7 10 -16 12 -13 2 -12 7 6 26 11 12 16 22
10 22 -7 0 -8 6 -1 18 6 12 6 23 -1 33 -8 11 -9 11 -4 -3z"/>
<path d="M1761 473 c-11 -12 -15 -13 -22 -1 -5 7 -9 9 -9 5 0 -4 10 -23 23
-42 19 -28 25 -31 40 -20 24 17 21 23 -8 17 -18 -3 -25 0 -25 12 0 9 7 16 15
16 8 0 15 4 15 9 0 17 -15 19 -29 4z"/>
<path d="M344 452 c3 -2 -2 -21 -10 -41 -24 -60 -24 -100 -2 -107 28 -8 30 -2
19 47 -7 31 -6 51 3 74 11 27 11 32 0 32 -8 0 -12 -2 -10 -5z"/>
<path d="M712 425 c-14 -31 -16 -63 -3 -49 13 14 31 74 22 74 -4 0 -13 -11
-19 -25z"/>
<path d="M1296 403 c-10 -21 -12 -33 -4 -44 8 -11 9 -11 4 4 -4 12 0 17 14 17
11 0 20 7 20 15 0 8 0 18 1 22 2 21 -22 11 -35 -14z"/>
<path d="M1437 418 c17 -10 19 -17 12 -31 -17 -29 -5 -42 13 -15 19 29 13 43
-22 52 -24 7 -25 7 -3 -6z"/>
<path d="M1612 418 c-7 -7 -12 -8 -12 -4 0 5 -7 3 -15 -4 -20 -17 -19 -28 3
-26 21 1 39 16 39 33 0 16 0 16 -15 1z"/>
<path d="M2110 429 c0 -4 7 -26 16 -50 12 -36 14 -67 9 -165 -6 -108 -5 -122
10 -128 12 -4 16 -16 13 -43 -2 -29 1 -38 12 -38 10 0 17 14 20 45 7 56 1 83
-15 76 -11 -4 -12 11 -8 68 8 105 -3 181 -32 214 -14 15 -25 24 -25 21z"/>
<path d="M1241 412 c0 -7 -5 -10 -11 -7 -6 4 -7 -1 -3 -11 4 -11 2 -15 -4 -11
-6 4 -13 -5 -15 -23 -2 -16 -1 -27 4 -24 4 3 8 10 8 16 0 6 7 16 16 23 9 6 14
20 11 31 -2 10 -5 13 -6 6z"/>
<path d="M1675 378 c-18 -8 -18 -8 3 -4 12 2 22 0 22 -5 0 -5 -8 -9 -17 -9
-14 -1 -12 -6 10 -25 30 -26 47 -32 47 -15 0 6 -5 10 -11 10 -6 0 -9 8 -7 18
7 24 -21 42 -47 30z"/>
<path d="M1728 382 c7 -5 10 -16 7 -24 -6 -14 -2 -15 29 -4 41 14 62 32 29 23
-13 -3 -26 -1 -29 4 -3 5 -15 9 -27 9 -15 0 -18 -3 -9 -8z"/>
<path d="M424 365 c-9 -22 22 -48 47 -40 l21 7 -23 24 c-26 28 -37 30 -45 9z"/>
<path d="M760 371 c0 -9 -57 -28 -132 -45 -16 -4 -28 -12 -28 -20 0 -10 9 -12
38 -6 55 11 170 80 133 80 -6 0 -11 -4 -11 -9z"/>
<path d="M1050 361 c-16 -30 -12 -34 14 -14 13 10 22 21 19 26 -8 13 -22 8
-33 -12z"/>
<path d="M1416 371 c-8 -12 0 -61 12 -73 5 -5 7 9 5 34 -5 47 -8 54 -17 39z"/>
<path d="M1539 344 c-6 -7 -9 -21 -6 -31 4 -14 5 -14 6 4 0 12 6 25 12 29 7 4
9 0 5 -14 -4 -11 -1 -32 6 -47 13 -30 0 -46 -32 -38 -26 7 -32 -12 -16 -51 8
-19 12 -36 10 -39 -3 -2 10 -2 28 0 18 3 39 5 46 6 6 0 12 5 12 10 0 5 -9 7
-20 4 -24 -6 -24 -4 -4 31 15 24 15 25 0 8 -9 -11 -18 -17 -21 -15 -8 8 7 49
16 43 5 -3 5 6 0 19 -12 32 -3 42 21 21 14 -13 15 -20 7 -31 -9 -10 -8 -13 0
-13 21 0 40 26 30 41 -5 8 -9 10 -9 5 0 -6 -6 -1 -14 9 -8 11 -20 16 -29 12
-9 -3 -19 -2 -22 4 -4 5 3 13 14 17 19 7 19 7 -4 18 -19 9 -27 9 -36 -2z"/>
<path d="M1664 281 c-21 -38 -21 -40 -3 -38 14 1 19 9 19 30 0 16 4 26 10 22
6 -4 8 -10 5 -15 -3 -4 -2 -15 1 -24 5 -12 9 -13 25 -3 10 6 19 16 19 21 0 6
-5 5 -12 -2 -15 -15 -26 -15 -25 1 2 58 -11 60 -39 8z"/>
<path d="M205 286 c-16 -6 -25 -15 -19 -19 16 -10 54 4 54 19 0 8 -1 14 -2 14
-2 -1 -16 -7 -33 -14z"/>
<path d="M2220 270 c5 -17 8 -84 7 -150 -2 -107 0 -120 15 -120 9 0 19 8 22
18 8 26 6 135 -3 147 -5 5 -11 24 -15 40 -4 17 -10 39 -13 50 -6 20 -5 20 16
1 27 -24 39 -70 47 -173 7 -84 23 -114 25 -45 0 20 6 52 13 71 11 30 10 37 -6
53 -20 20 -24 48 -7 48 11 0 -24 31 -78 68 l-32 22 9 -30z"/>
<path d="M898 264 c-5 -4 -8 -29 -8 -54 0 -26 -6 -65 -14 -86 -7 -22 -16 -59
-20 -84 l-7 -45 26 60 c37 83 48 139 38 181 -4 20 -11 32 -15 28z"/>
<path d="M1411 248 c-1 -9 6 -23 14 -32 18 -18 19 -36 3 -36 -7 0 -2 -6 12
-13 30 -16 65 -2 46 19 -8 8 -15 9 -23 2 -15 -12 -16 -4 -4 39 8 28 7 31 -9
30 -10 -1 -16 -5 -14 -9 3 -4 1 -8 -5 -8 -5 0 -12 6 -14 13 -4 7 -6 6 -6 -5z"/>
<path d="M992 215 c-11 -12 -10 -15 3 -15 9 0 18 -7 21 -15 4 -8 10 -12 15 -9
9 5 13 -17 9 -45 -1 -9 4 -12 14 -8 10 4 16 1 16 -7 0 -11 20 -26 34 -26 1 0
3 11 4 25 1 19 -2 23 -14 18 -13 -5 -15 -1 -9 18 6 20 5 22 -6 12 -17 -17 -29
-16 -29 2 0 23 -22 65 -34 65 -6 -1 -17 -7 -24 -15z"/>
<path d="M1611 214 c-7 -9 -10 -18 -6 -22 4 -4 10 -2 12 5 3 10 9 10 23 0 22
-13 47 3 36 22 -11 17 -29 13 -22 -4 7 -19 -3 -19 -18 -1 -10 13 -13 13 -25 0z"/>
<path d="M85 201 c-37 -17 -38 -19 -15 -23 21 -3 100 26 100 38 0 10 -48 1
-85 -15z"/>
<path d="M1390 173 c0 -5 6 -15 13 -22 10 -11 9 -13 -5 -8 -10 4 -18 2 -18 -4
0 -6 -4 -7 -10 -4 -5 3 -10 0 -10 -8 0 -10 -7 -13 -20 -10 -11 3 -20 0 -20 -6
0 -6 5 -11 12 -11 6 0 8 -3 5 -6 -4 -4 -14 -1 -24 7 -11 9 -14 10 -9 2 4 -7 2
-13 -3 -13 -6 0 -11 -5 -11 -11 0 -8 4 -8 14 0 9 8 16 8 20 2 10 -15 33 -2 39
21 5 16 11 19 36 13 27 -6 31 -4 28 13 -3 19 -37 61 -37 45z"/>
<path d="M1191 103 c-7 -8 -7 -14 -1 -18 6 -3 10 -3 10 1 0 3 6 2 13 -4 9 -8
15 -5 22 11 9 19 8 22 -11 22 -12 0 -26 -5 -33 -12z"/>
<path d="M2599 45 c48 -30 83 -45 104 -44 30 1 31 1 7 8 -14 5 -58 24 -97 45
-97 49 -102 45 -14 -9z"/>
<path d="M2387 34 c-12 -13 23 -34 55 -33 l33 1 -38 11 c-22 7 -35 15 -31 20
4 4 3 7 -3 7 -5 0 -12 -3 -16 -6z"/>
</g>
</svg>
